# xmcd CD database file
#
# Track frame offsets:
#	150
#	19983
#	42075
#	61908
#
# Disc length: 1116 seconds
#
# Revision: 0
# Processed by: cddbd v1.5.1PL0 Copyright (c) Steve Scherf et al.
# Submitted via: CDex 1.51
#
DISCID=2b045a04
DTITLE=BOYSTYLE - ココロのちず
DYEAR=2004
DGENRE=JPop
TTITLE0=ココロのちず
TTITLE1=Tomorrow 〜風の道標〜
TTITLE2=ココロのちず -Instrumental-
TTITLE3=Tomorrow 〜風の道標〜 -Instrumental-
EXTD=YEAR: 2004
EXTT0=
EXTT1=
EXTT2=
EXTT3=
PLAYORDER=
